<svg width="24" height="24" viewBox="0 0 24 24" fill="none" xmlns="http://www.w3.org/2000/svg">
<path d="M10.75 20.75C13.4022 20.75 15.9457 19.6964 17.8211 17.8211C19.6964 15.9457 20.75 13.4022 20.75 10.75C20.75 8.09784 19.6964 5.5543 17.8211 3.67893C15.9457 1.80357 13.4022 0.75 10.75 0.75C8.09784 0.75 5.5543 1.80357 3.67893 3.67893C1.80357 5.5543 0.75 8.09784 0.75 10.75C0.75 13.4022 1.80357 15.9457 3.67893 17.8211C5.5543 19.6964 8.09784 20.75 10.75 20.75Z" fill="white" fill-opacity="0.16"/>
<path d="M23.25 23.25L18.25 18.25M20.75 10.75C20.75 13.4022 19.6964 15.9457 17.8211 17.8211C15.9457 19.6964 13.4022 20.75 10.75 20.75C8.09784 20.75 5.5543 19.6964 3.67893 17.8211C1.80357 15.9457 0.75 13.4022 0.75 10.75C0.75 8.09784 1.80357 5.5543 3.67893 3.67893C5.5543 1.80357 8.09784 0.75 10.75 0.75C13.4022 0.75 15.9457 1.80357 17.8211 3.67893C19.6964 5.5543 20.75 8.09784 20.75 10.75Z" stroke="white" stroke-width="1.5" stroke-miterlimit="10" stroke-linecap="round" stroke-linejoin="round"/>
</svg>
