<svg width="160" height="76" viewBox="0 0 160 76" fill="none" xmlns="http://www.w3.org/2000/svg">
<g filter="url(#filter0_i_2176_6339)">
<path d="M37.2 24V29.8H7.32C6.73333 29.8 6.24 29.5867 5.84 29.16L3.6 26.8C3.2 26.3733 3 25.88 3 25.32V16.72H28.4V15.28H3V9.08H32.68C33.2667 9.08 33.76 9.29333 34.16 9.72L36.4 12.08C36.8 12.5333 37 13.0267 37 13.56V22.52H11.6V24H37.2ZM38.8 38.08H24.72V45.64H15.68V38.08H1.6V31.28H38.8V38.08ZM40.16 9.08H64.64V44.44H46.52C45.9333 44.44 45.44 44.2267 45.04 43.8L42.8 41.44C42.4 41.0133 42.2 40.52 42.2 39.96V13.44L40.16 9.08ZM77.8 8.48V45.64H69V12.84L66.96 8.48H77.8ZM56.04 16.48H50.8V37.04H56.04V16.48ZM106.96 8.48H117.8V45.64H109V28.68H98.24L97.04 21.28H109V12.84L106.96 8.48ZM106.12 37.04V44.44H87.52C86.9333 44.44 86.44 44.2267 86.04 43.8L83.8 41.44C83.4 41.0133 83.2 40.52 83.2 39.96V13.44L81.16 9.08H92V37.04H106.12ZM122.64 33.64L136.36 9.08H146.2L141.24 17.92L149.12 18.8L157.32 33.64H146.68L139.68 20.72L132.48 33.64H122.64ZM158.4 44.48H121.6V37.08H158.4V44.48Z" fill="#940000"/>
</g>
<g filter="url(#filter1_i_2176_6339)">
<path d="M93.125 72.4V60.94H92L92.81 58.87H98.915L99.98 59.95V65.71L98.915 66.79H98.255L100.175 72.4H97.88L95.45 64.72H97.46L97.73 64.45V61.18L97.46 60.94H95.375V72.4H93.125ZM107.098 64.075V71.335L106.018 72.4H102.133L101.068 71.335V64.075L102.133 63.01H106.018L107.098 64.075ZM103.468 70.33H104.668L104.938 70.09V65.32L104.668 65.08H103.468L103.228 65.32V70.09L103.468 70.33ZM114.452 64.075V71.335L113.372 72.4H109.487L108.422 71.335V64.075L109.487 63.01H113.372L114.452 64.075ZM110.822 70.33H112.022L112.292 70.09V65.32L112.022 65.08H110.822L110.582 65.32V70.09L110.822 70.33ZM120.935 65.08V72.4H118.775V65.08H117.935V72.4H115.775V63.01H117.935V64L118.61 63.01H120.02L120.635 63.745L121.325 63.01H123.11L123.935 63.82V72.4H121.775V65.08H120.935ZM130.596 72.4H128.346V58.87H130.596V72.4ZM134.166 65.08V72.4H132.006V63.01H134.166V63.82L134.841 63.01H137.031L137.856 63.82V72.4H135.696V65.32L135.441 65.08H134.166ZM149.387 58.87V71.335L148.307 72.4H143.687L142.622 71.335V60.94H141.512L142.322 58.87H144.872V70.09L145.112 70.33H146.882L147.122 70.09V58.87H149.387ZM156.47 64.075V66.28H154.31V65.245L154.04 64.975H153.215L152.96 65.245V66.16L156.47 68.14V71.335L155.405 72.4H151.865L150.8 71.335V69.025H152.96V70.165L153.215 70.42H154.04L154.31 70.165V69.37L150.8 67.405V64.075L151.865 63.01H155.405L156.47 64.075Z" fill="#940000"/>
</g>
<defs>
<filter id="filter0_i_2176_6339" x="1.60156" y="8.47998" width="156.797" height="41.1602" filterUnits="userSpaceOnUse" color-interpolation-filters="sRGB">
<feFlood flood-opacity="0" result="BackgroundImageFix"/>
<feBlend mode="normal" in="SourceGraphic" in2="BackgroundImageFix" result="shape"/>
<feColorMatrix in="SourceAlpha" type="matrix" values="0 0 0 0 0 0 0 0 0 0 0 0 0 0 0 0 0 0 127 0" result="hardAlpha"/>
<feOffset dy="4"/>
<feGaussianBlur stdDeviation="2"/>
<feComposite in2="hardAlpha" operator="arithmetic" k2="-1" k3="1"/>
<feColorMatrix type="matrix" values="0 0 0 0 0 0 0 0 0 0 0 0 0 0 0 0 0 0 0.25 0"/>
<feBlend mode="normal" in2="shape" result="effect1_innerShadow_2176_6339"/>
</filter>
<filter id="filter1_i_2176_6339" x="92" y="58.8701" width="64.4688" height="17.5298" filterUnits="userSpaceOnUse" color-interpolation-filters="sRGB">
<feFlood flood-opacity="0" result="BackgroundImageFix"/>
<feBlend mode="normal" in="SourceGraphic" in2="BackgroundImageFix" result="shape"/>
<feColorMatrix in="SourceAlpha" type="matrix" values="0 0 0 0 0 0 0 0 0 0 0 0 0 0 0 0 0 0 127 0" result="hardAlpha"/>
<feOffset dy="4"/>
<feGaussianBlur stdDeviation="2"/>
<feComposite in2="hardAlpha" operator="arithmetic" k2="-1" k3="1"/>
<feColorMatrix type="matrix" values="0 0 0 0 0 0 0 0 0 0 0 0 0 0 0 0 0 0 0.25 0"/>
<feBlend mode="normal" in2="shape" result="effect1_innerShadow_2176_6339"/>
</filter>
</defs>
</svg>
